<svg width="74" height="74" viewBox="0 0 74 74" fill="none" xmlns="http://www.w3.org/2000/svg">
<path d="M36.6464 0C16.4022 0 0 16.4022 0 36.6464C0 56.8906 16.4022 73.2928 36.6464 73.2928C56.8906 73.2928 73.2928 56.8906 73.2928 36.6464C73.2928 16.4022 56.8906 0 36.6464 0ZM36.6464 14.1857C43.8279 14.1857 49.6499 20.0077 49.6499 27.1893C49.6499 34.3708 43.8279 40.1928 36.6464 40.1928C29.4649 40.1928 23.6428 34.3708 23.6428 27.1893C23.6428 20.0077 29.4649 14.1857 36.6464 14.1857ZM36.6464 65.0178C27.9724 65.0178 20.1998 61.0872 14.9984 54.94C17.7765 49.709 23.2143 46.1035 29.5535 46.1035C29.9082 46.1035 30.2628 46.1626 30.6027 46.2661C32.5237 46.8867 34.5333 47.2857 36.6464 47.2857C38.7595 47.2857 40.7839 46.8867 42.6901 46.2661C43.0299 46.1626 43.3846 46.1035 43.7392 46.1035C50.0785 46.1035 55.5163 49.709 58.2943 54.94C53.0929 61.0872 45.3203 65.0178 36.6464 65.0178Z" fill="black"/>
</svg>
